<svg viewBox="0 0 1112.2000732421875 400" xmlns="http://www.w3.org/2000/svg"><g><g><g><g><g><line x1="74.6875" y1="377" x2="69.6875" y2="377" style="visibility: inherit;" fill="rgb(0, 0, 0)" stroke="rgb(204, 204, 204)" stroke-width="1px"></line><line x1="74.6875" y1="345.5833333333333" x2="69.6875" y2="345.5833333333333" style="visibility: inherit;" fill="rgb(0, 0, 0)" stroke="rgb(204, 204, 204)" stroke-width="1px"></line><line x1="74.6875" y1="314.1666666666667" x2="69.6875" y2="314.1666666666667" style="visibility: inherit;" fill="rgb(0, 0, 0)" stroke="rgb(204, 204, 204)" stroke-width="1px"></line><line x1="74.6875" y1="282.75" x2="69.6875" y2="282.75" style="visibility: inherit;" fill="rgb(0, 0, 0)" stroke="rgb(204, 204, 204)" stroke-width="1px"></line><line x1="74.6875" y1="251.33333333333334" x2="69.6875" y2="251.33333333333334" style="visibility: inherit;" fill="rgb(0, 0, 0)" stroke="rgb(204, 204, 204)" stroke-width="1px"></line><line x1="74.6875" y1="219.91666666666669" x2="69.6875" y2="219.91666666666669" style="visibility: inherit;" fill="rgb(0, 0, 0)" stroke="rgb(204, 204, 204)" stroke-width="1px"></line><line x1="74.6875" y1="188.50000000000003" x2="69.6875" y2="188.50000000000003" style="visibility: inherit;" fill="rgb(0, 0, 0)" stroke="rgb(204, 204, 204)" stroke-width="1px"></line><line x1="74.6875" y1="157.08333333333337" x2="69.6875" y2="157.08333333333337" style="visibility: inherit;" fill="rgb(0, 0, 0)" stroke="rgb(204, 204, 204)" stroke-width="1px"></line><line x1="74.6875" y1="125.66666666666671" x2="69.6875" y2="125.66666666666671" style="visibility: inherit;" fill="rgb(0, 0, 0)" stroke="rgb(204, 204, 204)" stroke-width="1px"></line><line x1="74.6875" y1="94.25000000000006" x2="69.6875" y2="94.25000000000006" style="visibility: inherit;" fill="rgb(0, 0, 0)" stroke="rgb(204, 204, 204)" stroke-width="1px"></line><line x1="74.6875" y1="62.83333333333337" x2="69.6875" y2="62.83333333333337" style="visibility: inherit;" fill="rgb(0, 0, 0)" stroke="rgb(204, 204, 204)" stroke-width="1px"></line><line x1="74.6875" y1="31.416666666666686" x2="69.6875" y2="31.416666666666686" style="visibility: inherit;" fill="rgb(0, 0, 0)" stroke="rgb(204, 204, 204)" stroke-width="1px"></line><line x1="74.6875" y1="0" x2="69.6875" y2="0" style="visibility: inherit;" fill="rgb(0, 0, 0)" stroke="rgb(204, 204, 204)" stroke-width="1px"></line></g><g transform="translate(64.6875, 0)"><text x="0" y="377" dx="0em" dy="0.3em" style="text-anchor: end; visibility: hidden; font-family: &quot;Helvetica Neue&quot;, sans-serif; font-size: 12px; font-weight: 200;" fill="rgb(50, 49, 63)" stroke="none" stroke-width="1px">-0.100</text><text x="0" y="345.5833333333333" dx="0em" dy="0.3em" style="text-anchor: end; visibility: inherit; font-family: &quot;Helvetica Neue&quot;, sans-serif; font-size: 12px; font-weight: 200;" fill="rgb(50, 49, 63)" stroke="none" stroke-width="1px">0.00</text><text x="0" y="314.1666666666667" dx="0em" dy="0.3em" style="text-anchor: end; visibility: inherit; font-family: &quot;Helvetica Neue&quot;, sans-serif; font-size: 12px; font-weight: 200;" fill="rgb(50, 49, 63)" stroke="none" stroke-width="1px">0.100</text><text x="0" y="282.75" dx="0em" dy="0.3em" style="text-anchor: end; visibility: inherit; font-family: &quot;Helvetica Neue&quot;, sans-serif; font-size: 12px; font-weight: 200;" fill="rgb(50, 49, 63)" stroke="none" stroke-width="1px">0.200</text><text x="0" y="251.33333333333334" dx="0em" dy="0.3em" style="text-anchor: end; visibility: inherit; font-family: &quot;Helvetica Neue&quot;, sans-serif; font-size: 12px; font-weight: 200;" fill="rgb(50, 49, 63)" stroke="none" stroke-width="1px">0.300</text><text x="0" y="219.91666666666669" dx="0em" dy="0.3em" style="text-anchor: end; visibility: inherit; font-family: &quot;Helvetica Neue&quot;, sans-serif; font-size: 12px; font-weight: 200;" fill="rgb(50, 49, 63)" stroke="none" stroke-width="1px">0.400</text><text x="0" y="188.50000000000003" dx="0em" dy="0.3em" style="text-anchor: end; visibility: inherit; font-family: &quot;Helvetica Neue&quot;, sans-serif; font-size: 12px; font-weight: 200;" fill="rgb(50, 49, 63)" stroke="none" stroke-width="1px">0.500</text><text x="0" y="157.08333333333337" dx="0em" dy="0.3em" style="text-anchor: end; visibility: inherit; font-family: &quot;Helvetica Neue&quot;, sans-serif; font-size: 12px; font-weight: 200;" fill="rgb(50, 49, 63)" stroke="none" stroke-width="1px">0.600</text><text x="0" y="125.66666666666671" dx="0em" dy="0.3em" style="text-anchor: end; visibility: inherit; font-family: &quot;Helvetica Neue&quot;, sans-serif; font-size: 12px; font-weight: 200;" fill="rgb(50, 49, 63)" stroke="none" stroke-width="1px">0.700</text><text x="0" y="94.25000000000006" dx="0em" dy="0.3em" style="text-anchor: end; visibility: inherit; font-family: &quot;Helvetica Neue&quot;, sans-serif; font-size: 12px; font-weight: 200;" fill="rgb(50, 49, 63)" stroke="none" stroke-width="1px">0.800</text><text x="0" y="62.83333333333337" dx="0em" dy="0.3em" style="text-anchor: end; visibility: inherit; font-family: &quot;Helvetica Neue&quot;, sans-serif; font-size: 12px; font-weight: 200;" fill="rgb(50, 49, 63)" stroke="none" stroke-width="1px">0.900</text><text x="0" y="31.416666666666686" dx="0em" dy="0.3em" style="text-anchor: end; visibility: inherit; font-family: &quot;Helvetica Neue&quot;, sans-serif; font-size: 12px; font-weight: 200;" fill="rgb(50, 49, 63)" stroke="none" stroke-width="1px">1.00</text><text x="0" y="0" dx="0em" dy="0.3em" style="text-anchor: end; visibility: hidden; font-family: &quot;Helvetica Neue&quot;, sans-serif; font-size: 12px; font-weight: 200;" fill="rgb(50, 49, 63)" stroke="none" stroke-width="1px">1.10</text></g><line x1="74.6875" y1="0" x2="74.6875" y2="377" fill="rgb(0, 0, 0)" stroke="rgb(204, 204, 204)" stroke-width="1px"></line></g></g><g transform="translate(74, 0)" clip-path="url(#clip_0)"><clipPath id="clip_0"><rect width="1037" height="377"></rect></clipPath><g><g><g><line x1="0" y1="0" x2="0" y2="377" fill="rgb(0, 0, 0)" stroke="rgb(60, 60, 60)" stroke-width="1px" opacity="0.25"></line><line x1="74.10803571428572" y1="0" x2="74.10803571428572" y2="377" fill="rgb(0, 0, 0)" stroke="rgb(60, 60, 60)" stroke-width="1px" opacity="0.25"></line><line x1="148.21607142857144" y1="0" x2="148.21607142857144" y2="377" fill="rgb(0, 0, 0)" stroke="rgb(60, 60, 60)" stroke-width="1px" opacity="0.25"></line><line x1="222.32410714285714" y1="0" x2="222.32410714285714" y2="377" fill="rgb(0, 0, 0)" stroke="rgb(60, 60, 60)" stroke-width="1px" opacity="0.25"></line><line x1="296.4321428571429" y1="0" x2="296.4321428571429" y2="377" fill="rgb(0, 0, 0)" stroke="rgb(60, 60, 60)" stroke-width="1px" opacity="0.25"></line><line x1="370.5401785714286" y1="0" x2="370.5401785714286" y2="377" fill="rgb(0, 0, 0)" stroke="rgb(60, 60, 60)" stroke-width="1px" opacity="0.25"></line><line x1="444.6482142857143" y1="0" x2="444.6482142857143" y2="377" fill="rgb(0, 0, 0)" stroke="rgb(60, 60, 60)" stroke-width="1px" opacity="0.25"></line><line x1="518.75625" y1="0" x2="518.75625" y2="377" fill="rgb(0, 0, 0)" stroke="rgb(60, 60, 60)" stroke-width="1px" opacity="0.25"></line><line x1="592.8642857142858" y1="0" x2="592.8642857142858" y2="377" fill="rgb(0, 0, 0)" stroke="rgb(60, 60, 60)" stroke-width="1px" opacity="0.25"></line><line x1="666.9723214285715" y1="0" x2="666.9723214285715" y2="377" fill="rgb(0, 0, 0)" stroke="rgb(60, 60, 60)" stroke-width="1px" opacity="0.25"></line><line x1="741.0803571428572" y1="0" x2="741.0803571428572" y2="377" fill="rgb(0, 0, 0)" stroke="rgb(60, 60, 60)" stroke-width="1px" opacity="0.25"></line><line x1="815.1883928571428" y1="0" x2="815.1883928571428" y2="377" fill="rgb(0, 0, 0)" stroke="rgb(60, 60, 60)" stroke-width="1px" opacity="0.25"></line><line x1="889.2964285714286" y1="0" x2="889.2964285714286" y2="377" fill="rgb(0, 0, 0)" stroke="rgb(60, 60, 60)" stroke-width="1px" opacity="0.25"></line><line x1="963.4044642857143" y1="0" x2="963.4044642857143" y2="377" fill="rgb(0, 0, 0)" stroke="rgb(60, 60, 60)" stroke-width="1px" opacity="0.25"></line><line x1="1037.5125" y1="0" x2="1037.5125" y2="377" fill="rgb(0, 0, 0)" stroke="rgb(60, 60, 60)" stroke-width="1px" opacity="0.25"></line></g><g><line x1="0" y1="377" x2="1037.5125" y2="377" fill="rgb(0, 0, 0)" stroke="rgb(60, 60, 60)" stroke-width="1px" opacity="0.25"></line><line x1="0" y1="345.5833333333333" x2="1037.5125" y2="345.5833333333333" fill="rgb(0, 0, 0)" stroke="rgb(60, 60, 60)" stroke-width="1px" opacity="0.25"></line><line x1="0" y1="314.1666666666667" x2="1037.5125" y2="314.1666666666667" fill="rgb(0, 0, 0)" stroke="rgb(60, 60, 60)" stroke-width="1px" opacity="0.25"></line><line x1="0" y1="282.75" x2="1037.5125" y2="282.75" fill="rgb(0, 0, 0)" stroke="rgb(60, 60, 60)" stroke-width="1px" opacity="0.25"></line><line x1="0" y1="251.33333333333334" x2="1037.5125" y2="251.33333333333334" fill="rgb(0, 0, 0)" stroke="rgb(60, 60, 60)" stroke-width="1px" opacity="0.25"></line><line x1="0" y1="219.91666666666669" x2="1037.5125" y2="219.91666666666669" fill="rgb(0, 0, 0)" stroke="rgb(60, 60, 60)" stroke-width="1px" opacity="0.25"></line><line x1="0" y1="188.50000000000003" x2="1037.5125" y2="188.50000000000003" fill="rgb(0, 0, 0)" stroke="rgb(60, 60, 60)" stroke-width="1px" opacity="0.25"></line><line x1="0" y1="157.08333333333337" x2="1037.5125" y2="157.08333333333337" fill="rgb(0, 0, 0)" stroke="rgb(60, 60, 60)" stroke-width="1px" opacity="0.25"></line><line x1="0" y1="125.66666666666671" x2="1037.5125" y2="125.66666666666671" fill="rgb(0, 0, 0)" stroke="rgb(60, 60, 60)" stroke-width="1px" opacity="0.25"></line><line x1="0" y1="94.25000000000006" x2="1037.5125" y2="94.25000000000006" fill="rgb(0, 0, 0)" stroke="rgb(60, 60, 60)" stroke-width="1px" opacity="0.25"></line><line x1="0" y1="62.83333333333337" x2="1037.5125" y2="62.83333333333337" fill="rgb(0, 0, 0)" stroke="rgb(60, 60, 60)" stroke-width="1px" opacity="0.25"></line><line x1="0" y1="31.416666666666686" x2="1037.5125" y2="31.416666666666686" fill="rgb(0, 0, 0)" stroke="rgb(60, 60, 60)" stroke-width="1px" opacity="0.25"></line><line x1="0" y1="0" x2="1037.5125" y2="0" fill="rgb(0, 0, 0)" stroke="rgb(60, 60, 60)" stroke-width="1px" opacity="0.25"></line></g></g></g><g><g><line x1="0" y1="345.5833333333333" x2="1037.5125" y2="345.5833333333333" fill="rgb(0, 0, 0)" stroke="rgb(153, 153, 153)" stroke-width="1.5px"></line></g></g><g><g><line x1="74.10803571428572" y1="0" x2="74.10803571428572" y2="377" fill="rgb(0, 0, 0)" stroke="rgb(153, 153, 153)" stroke-width="1.5px"></line></g></g><g><g><g><g><g><path stroke="rgb(0, 119, 187)" stroke-width="2px" d="M74.14508973214286,345.5833333333333L111.19910758928572,319.50504557291663L148.25312544642858,281.46768707482994L185.30714330357142,221.82426183363975L222.36116116071432,171.17593486149664L259.41517901785716,150.63960543098818L296.469196875,134.90849707025254L333.52321473214283,129.75065378101053L370.5772325892857,120.7613634332256L407.6312504464286,113.45063370623262L444.68526830357143,108.10724456524548L481.7392861607143,94.09060640211703L518.7933040178572,95.53072390133735L555.8473218749999,91.48088571896358L592.9013397321429,86.10631688981618L629.9553575892858,89.75752851415183L667.0093754464286,85.07403684980699L704.0633933035715,81.28257871622708L741.1174111607143,75.0806276411401L778.1714290178571,74.30511906419514L815.225446875,81.6941710317854L852.279464732143,75.32787715815994L889.3334825892858,81.3259403300803L926.3875004464286,78.0523195197178" style="fill: none;" fill="none"></path></g><g><path stroke="rgb(255, 112, 67)" stroke-width="2px" d="M74.81206205357142,345.5833333333333L75.70135848214287,345.5833333333333L75.81252053571428,345.5833333333333L76.775925,345.5833333333333L77.62816741071428,345.5833333333333L79.99962455357144,345.5833333333333L80.33311071428572,345.5833333333333L82.63045982142857,344.5847908201823L82.81572991071428,344.9882740063339L83.59386428571429,345.2277457310792L84.26083660714286,345.37049867546045L85.55772723214285,345.4558182607758L85.63183526785714,345.5068909943334L85.9282674107143,345.5374919100852L87.7439142857143,344.57360444063613L89.74483125,344.9776099721158L91.18993794642859,343.2560662500931L91.70869419642858,344.1870676358496L94.00604330357143,340.81828530147703L95.00650178571429,335.8517270956492L95.59936607142858,337.7808702435742L95.85874419642857,336.97476153600434L95.89579821428572,338.4546602754769L97.63733705357144,337.3790410685922L98.1190392857143,337.71544643089874L98.63779553571429,335.9537440200635L99.00833571428572,329.0060934678514L100.60165848214285,329.7463648686405L100.89809062500001,328.2269850280256L102.49141339285714,322.4065022300584L102.71373750000001,320.87775530192204L103.23249375,321.9240490977576L103.30660178571429,324.5153670823951L103.86241205357143,323.12484520959697L104.0847361607143,328.18115721267975L105.12224866071429,327.28786098506066L109.16113660714286,325.7701124149769L110.12454107142857,322.8959216049804L110.16159508928571,323.13494879685413L110.38391919642856,315.4241984344718L111.38437767857144,319.633685730726L111.71786383928573,322.15937810631766L113.53351071428573,319.7477101964276L113.64467276785716,314.37362611692555L114.64513125,317.03980067043244L114.86745535714286,318.63950540235925L115.05272544642857,313.70870324123104L116.97953437500001,306.82313861125067L117.16480446428572,304.65534150005453L117.20185848214285,303.35466323335555L117.86883080357143,303.556027106681L120.24028794642858,296.8044495973223L120.87020625000001,302.5712114250701L122.90817723214286,306.0312685217124L123.0193392857143,306.1437611130275L123.53809553571429,291.48469416781097L123.68631160714287,286.6163373340188L125.46490446428572,288.6041774004116L125.72428258928572,288.8151106069136L126.53947098214287,289.92344136414823L126.98411919642857,287.6431273184889L127.354659375,282.3478555577599L128.4662799107143,278.18892166798923L128.87387410714285,271.76647800079354L129.39263035714285,263.0041576338094L130.57835892857145,259.71030708028565L131.65292544642858,260.6793092481714L132.24578973214287,258.31539804890286L132.83865401785715,266.7147596626751L132.9868700892857,259.97312663093834L133.61678839285713,270.65470931189634L134.91367901785713,273.1365755871378L136.80343392857145,261.86267451894935L137.47040625000002,263.9342713780363L137.80389241071427,254.3777503268218L138.3226486607143,258.4615460294264L138.39675669642858,256.98474011765586L138.50791875000002,246.28094823726022L140.1382955357143,245.74929810902282L141.8057263392857,241.503224698747L142.4726986607143,244.84620565258155L142.8061848214286,249.79730672488228L143.2878870535714,249.82265486826273L143.39904910714284,248.85609292095762L143.69548125000003,252.2032390859079L145.17764196428573,242.4302767848781L145.80756026785716,236.56649940426018L146.1781004464286,242.8659413092228L146.28926249999998,232.90081478553367L148.29017946428573,215.1404888713202L148.73482767857143,221.17439748945878L149.58707008928573,222.83120099367528L151.10628482142857,215.9711164295385L151.40271696428573,214.80037819105644L151.5509330357143,219.9885602479672L151.8103111607143,223.10146948211363L155.1822267857143,216.13327752260153L155.33044285714286,212.9341331802276L155.626875,215.92350074146992L156.07152321428572,212.80826711154864L156.81260357142858,203.0849602669292L156.9978736607143,207.06868449349088L157.03492767857142,212.40423152942788L157.7760080357143,206.76962225099004L157.961278125,206.3341691839274L159.62870892857143,204.1093556770231L160.07335714285713,199.82915507288052L161.03676160714286,210.0240555437283L161.37024776785714,209.26859999290366L162.66713839285714,210.77886832907555L162.7041924107143,210.70325849744535L162.77830044642857,204.76726759846724L164.40867723214288,190.40619389241368L165.03859553571428,191.6072580021149L165.11270357142857,196.25497980126895L165.2979736607143,200.02538371409472L166.22432410714288,200.3240843951235L166.26137812500002,197.5579923037408L166.63191830357144,195.89833704891117L166.7060263392857,196.86608556268004L166.89129642857145,200.39204717094137L167.41005267857145,206.43470746923148L167.63237678571429,197.29728281487223L167.9658629464286,207.52316135559002L168.52167321428573,212.67691764668734L168.7439973214286,210.8603172546791L173.63512767857145,196.02556535280746L174.30210000000002,201.85127671168448L175.6730986607143,203.38316186034402L176.19185491071428,192.52104294953975L177.4887455357143,185.02200076972392L181.45352544642859,179.540804628501L184.08436071428574,182.1427119437673L184.38079285714286,180.75854383292705L185.7147375,181.8915846330896L186.71519598214286,187.48026327985377L186.8263580357143,184.9428454679123L188.97549107142856,187.34747811408073L191.27284017857144,182.89963270178177L192.56973080357145,176.30384212106912L193.8295674107143,182.1640761059748L194.20010758928572,169.9718831635849L194.3483236607143,160.69302573148428L194.4224316964286,161.01633627222395L194.4594857142857,165.13740593000105L196.60861875,169.573589391334L198.0907794642857,164.38113280146706L199.23945401785716,162.24742968088026L200.42518258928573,162.93074947519483L201.24037098214288,157.4501163517836L201.9443973214286,156.12527814440352L202.5002075892857,163.18454188664214L203.09307187500002,153.6753084653186L207.53955401785714,141.0973725791912L208.20652633928572,151.22248604751474L208.28063437500003,156.31578329517555L209.61457901785715,153.481136643772L210.13333526785715,148.83503615292986L212.20836026785716,143.1020633584246L212.35657633928574,143.58936301505477L212.7641705357143,142.89997197569951L214.69097946428573,138.55925401875308L215.46911383928574,142.8272190779185L215.65438392857143,138.51560228008444L215.72849196428572,139.85571553471732L216.09903214285717,146.5504084874971L217.32181473214285,157.43962009249827L219.693271875,162.0096053888323L220.730784375,156.89742989996608L221.768296875,151.86658293997965L223.17634955357144,141.97567893065448L223.58394375,136.0411365250594L223.69510580357144,137.389265248369L225.80718482142856,141.14345498235474L225.99245491071432,138.48711465607954L226.40004910714288,147.69278962698107L229.10499241071432,136.52609044285532L229.54964062500002,140.62555009904654L229.62374866071428,136.21283005942794L229.84607276785715,133.56519803565678L230.7724232142857,139.8307854880607L230.95769330357146,135.73597129283647L231.06885535714287,147.02387444236854L232.10636785714289,137.10651216542118L232.2175299107143,147.8461989659194L233.62558258928573,141.52699021288498L234.10728482142858,146.57140246106434L234.18139285714284,133.88971647663863L237.18276830357146,138.06195488598317L238.40555089285715,137.61998543158992L240.5917379464286,141.28188709228732L241.22165625000002,145.4425697553724L241.99979062500003,140.0848126865568L243.77838348214286,140.79724177860078L243.8895455357143,145.15178256716047L245.631084375,131.07440287362965L246.96502901785718,138.3363083908445L247.11324508928573,135.82105586784002L247.40967723214285,130.38482102070404L248.78067589285718,132.0319342790891L250.15167455357144,134.98374390078686L250.44810669642857,137.7366005071388L251.55972723214288,120.73466863761661L252.00437544642858,130.16892618256998L252.07848348214287,129.93885570954203L253.4865361607143,129.8008134257252L253.93118437500002,129.71798805543514L255.487453125,134.57714699992775L258.0071263392857,133.56555903329001L258.3406125,131.976835419974L258.45177455357145,127.09651791865107L261.2678799107143,134.96780658452403L261.34198794642856,125.94578811738111L261.37904196428576,131.33205620376205L263.3429049107143,140.45444205559056L264.3804174107143,132.18308190002102L266.82598258928573,134.09266164001264L268.2710892857143,137.20195115067426L271.60595089285715,130.23158735707125L272.1988151785714,132.92176491424277L272.71757142857143,129.627017281879L274.97786651785714,119.79600203579412L275.7930549107143,122.73333038814312L278.4979982142857,129.4045815662192L278.57210625000005,125.55316560639821L279.75783482142856,117.3516910305056L281.16588750000005,116.35788961830337L283.8708308035715,116.74337960431535L284.019046875,121.88352776258924L284.5748571428572,124.96761665755355L286.094071875,124.8545283278655L286.20523392857143,121.84136283005265L288.16909687500004,119.05169269803162L289.3548254464286,115.4143489521523L289.98474375000006,110.28663020462471L290.09590580357144,118.00947812277485L291.3557424107143,124.60672854033163L291.4298504464286,114.82028712419896L291.6892285714286,118.76613060785269L293.0231732142857,113.27947003137831L293.8013075892857,111.95101535216031L294.69060401785714,113.11748421129619L294.87587410714286,118.72621969344442L295.09819821428573,117.18260681606671L296.09865669642863,115.27466825630671L296.8397370535714,116.09344678711733L297.0250071428572,110.69408890560379L297.5808174107143,109.41801584336224L299.35941026785713,110.61591367268403L300.95273303571435,111.33465237027713L301.32327321428573,112.74766642216628L303.17597410714285,111.63193318663315L303.88000044642854,109.98072241197985L304.3617026785715,118.80770428052125L304.58402678571434,107.41378923497945L305.06572901785717,110.39514854098775L307.17780803571435,108.25688079125933L308.03005044642856,115.8098576414223L308.21532053571434,124.2687270848534L309.10461696428575,120.50811125091207L309.9198053571429,108.43403341721393L310.4015075892857,117.87969088366174L311.29080401785717,108.82052286353036L314.8479897321429,104.3667928847849L314.99620580357146,102.67632573087099L315.7372861607143,107.55267043852263L317.73820312500004,113.42378976311358L318.10874330357143,106.14698219120152L318.8127696428571,109.63506431472092L320.81368660714287,108.78260108883256L321.14717276785717,109.25289398663284L321.59182098214285,108.55329889197975L321.7029830357143,112.0606251685212L322.25879330357145,103.3655417677794L322.3699553571429,111.89328339400095L322.8146035714286,116.02815753640061L323.81506205357147,116.54554035517373L323.96327812500004,111.94711587977093L324.37087232142864,105.2609778611959L327.29813973214283,106.15814921671756L327.81689598214285,104.73291036336389L328.113328125,105.84130871801835L328.6691383928572,114.36051439747774L331.07764955357146,114.56318363848669L332.263378125,116.64832684975869L333.22678258928573,107.09993360985521L334.04197098214286,106.27975183257979L337.450940625,108.73295526621456L337.74737276785714,107.25956482639543L339.2665875,97.53959306250397L341.5268825892857,103.48886000416906L342.67555714285714,101.16779516916813L344.63942008928575,101.73869793483419L345.0470142857143,102.08123959423392L345.7139866071429,98.35968125654034L346.08452678571433,104.96268375392424L346.1215808035715,101.07031858568791L346.82560714285717,100.6984411514128L347.6778495535715,101.45708552418102L348.3818758928572,105.83935548117535L349.82698258928576,98.65100912203854L349.9381446428572,93.35623047322315L350.19752276785715,99.01530078393387L350.5680629464286,98.48365963702702L350.67922500000003,98.16467494888286L351.23503526785714,105.82745080266312L352.45781785714286,97.66209548159787L353.1618441964286,97.67173645562542L356.08911160714285,97.67752104004194L357.38600223214286,93.75390845735853L358.0159205357143,87.47265757441517L358.5717308035714,90.57630287798241L358.979325,90.4749483934562L359.2016491071428,90.4141357027404L360.4985397321429,100.19535642164425L361.16551205357143,93.30106801965326L361.6842683035714,103.8910574784586L362.4253486607143,99.44557198707514L362.72178080357145,106.59598902557849L363.0923209821429,102.05030174868045L364.38921160714284,89.50518104920826L364.57448169642856,96.70467112952502L366.8347767857143,92.18842767771503L366.8718308035714,86.5333691066291L368.05755937500004,95.90335479731078L370.24374642857146,92.68940871171986L371.54063705357146,89.77927022703193L371.94823125,91.96027046955248L372.3928794642857,96.21418311506488L373.0227977678572,97.78475986903896L377.24695580357144,83.01877258809003L377.395171875,83.97688855285406L378.54384642857144,93.38769563171246L378.76617053571425,98.05240904569416L380.9153035714286,96.92415376074985L381.32289776785717,89.37480475644992L382.69389642857146,85.82696618720325L382.8791665178572,98.42482554565532L382.9532745535714,102.05645782739322L383.1755986607143,102.27189552976932L384.0278410714286,96.51053315119492L384.21311116071433,95.01725739071696L384.54659732142864,92.15775026776356L387.8814589285714,87.49673349399148L387.99262098214285,91.57251926306157L389.03013348214284,87.14559489117028L389.2154035714286,92.34360693470222L389.4006736607143,89.57178916082137L391.54980669642856,82.9998443298262L392.5132111607143,80.03844826456242L392.8466973214286,86.11577729207079L394.06947991071434,101.5434247085758L394.1065339285714,95.09167982514543L394.4400200892857,91.2206328950873L395.84807276785716,88.89800473705242L396.1445049107143,98.30390700889814L396.32977500000004,88.2391150386722L400.25750089285714,88.09086485653671L400.92447321428574,88.00191474725534L401.0356352678571,91.87562801501991L401.81376964285715,87.32746014234527L402.22136383928574,92.45272608540722L403.11066026785716,88.65548981791102L403.37003839285717,92.26777305741331L403.9999566964286,86.580976334448L404.07406473214286,81.2053566340021L404.1852267857143,90.74300564706795L404.9633611607143,88.61142838824082L405.2227392857143,98.13196119961117L406.0749816964286,95.00834338643341L406.7049,99.0247976985267L407.37187232142855,92.59873278578272L407.5941964285714,92.67017717146967L407.9647366071429,100.56721046954851L409.66922142857146,94.5059512817291L409.96565357142856,89.88742493570413L410.7437879464286,91.04339246142251L413.3746232142857,88.79166047685351L416.0054584821429,89.40416295277879L416.26483660714285,93.69874777166729L417.26529508928576,93.33018616300035L419.00683392857144,92.12727836446692L419.34032008928574,85.51490868534682L420.5260486607143,91.36519521120812L421.3041830357143,88.00297129339157L422.89750580357145,88.9309494427016L423.0086678571429,100.28721549895431L423.7497482142857,97.2832667993726L424.00912633928573,92.53558507962356L424.97253080357143,97.54114271444081L427.56631205357144,94.6538522953312L427.89979821428574,94.88501971053205L428.15917633928575,90.11486599298598L428.6408785714286,93.14339876245828L429.45606696428575,89.06989342414164L430.86411964285713,89.5711027211517L431.7534160714286,85.94474496602436L431.97574017857147,92.60486781294799L432.82798258928574,97.5827123544355L433.4949549107143,95.6605649126613L436.0887361607143,97.45258894759684L437.7191129464286,97.54603253522481L438.7566254464286,92.69324452113489L438.8677875,87.81803004601431L440.34994821428575,86.85644302760858L441.23924464285716,91.18834498323184L443.64775580357144,89.86040282327247L446.5379691964286,93.97249169396349L446.72323928571427,93.49443251637808L446.8344013392857,102.04353450982694L447.79780580357146,109.13653737256283L448.65004821428573,95.72046409020436L449.4281825892857,92.57967428745599L450.021046875,93.64051290580699L450.91034330357144,87.40462024348426L451.5402616071429,93.48079297942388L454.171096875,86.32701745432098L454.9121772321429,84.9800646392593L455.1715553571429,89.08074711688892L459.358659375,85.65053160346673L459.46982142857144,85.55594396208005L460.2479558035715,85.49919137724805L460.43322589285714,86.44691065968215L462.4341428571429,91.92439639580931L462.8046830357143,92.26557533748564L462.9528991071429,99.34267853582469L464.027465625,93.77123212149485L465.2131941964286,99.26430177289689L465.25024821428576,105.50545606373817L466.84357098214286,93.54181530490962L467.17705714285717,95.19956834961243L467.8069754464286,96.19422017643416L467.9922455357143,96.79101127252716L468.3257316964286,93.22200259684968L468.91859598214285,95.98945155810986L469.5485142857143,96.66815010153255L471.03067500000003,91.18474422758624L472.4016736607143,82.0040757032184L472.73515982142857,84.34984125526444L472.7722138392857,82.81198808649202L473.5874022321429,80.90750535189522L473.8467803571429,83.69189904447052L474.8842928571429,94.19847276001565L475.2548330357143,84.79408365600938L475.440103125,87.00561686027237L475.8476973214286,93.2413909494968L476.1811834821429,90.1104595696981L476.69993973214287,94.12252574181889L478.1079924107143,90.63914044509136L478.21915446428574,97.3850467670548L479.4789910714286,94.56019472689957L479.6272071428572,92.86528350280645L480.4794495535715,102.64781593501726L480.7017736607143,97.71785622767703L480.7758816964286,99.66873456993955L482.25804241071427,92.00332407529709L482.48036651785714,89.36761944517826L482.96206875000007,91.7132800004403L483.14733883928574,98.02953050026417L483.66609508928576,90.03803080015848L485.5187959821429,89.17021431342846L486.22282232142857,93.55837858805717L486.55630848214287,98.15481881950097L487.2232808035714,98.94914129170058L488.2237392857143,97.46219310835369L489.07598169642864,91.66117003167892L489.1500897321429,96.03472285234068L489.18714375,89.82291704473778L491.37333080357143,82.16875022684269L491.81797901785717,80.52156263610561L493.22603169642855,80.51502091499674L495.11578660714287,87.38349171566466L497.26491964285714,88.5592616960655L498.59886428571434,96.13711951763929L499.22878258928574,97.7385217105836L499.9698629464286,87.89988385968354L501.1185375,90.83263864914346L501.4520236607143,92.59229152281938L502.08194196428576,84.812145747025L502.37837410714286,78.1805166148817L502.71186026785716,79.11039330226237L503.8605348214286,85.55894431469073L505.30564151785717,95.3186999221478L505.7502897321429,87.42976161995534L506.1949379464286,85.64171113863989L506.60253214285717,82.60533918318396L507.12128839285714,79.80174517657707L507.1953964285715,81.06490127261293L508.52934107142863,81.82279493023447L509.8632857142857,83.25930195814067L510.86374419642857,89.03006034155106L511.41955446428574,89.54720287159739L512.531175,88.87571755629176L513.4204714285714,89.45459720044181L514.08744375,90.78369582026511L516.3106848214286,90.59938415882579L516.7923870535715,90.48879716196217L516.8664950892858,84.53181996384404L517.6446294642858,87.83002947830647L517.8298995535714,82.93655935365058L518.3486558035714,84.90933144552372L518.7191959821429,86.09299470064758L518.9044660714286,84.83965098705522L519.1638441964286,88.01472809223316L519.8678705357144,88.93800352200657L520.31251875,94.40082294653729L523.9067584821429,90.80611876792238L524.46256875,88.64929626075349L524.8701629464286,90.30051525645212L525.0183790178571,84.41885082053801L525.6112433035714,84.81693549232278L526.8340258928572,82.11047379539372L527.1675120535715,81.46836761056954L529.5389691964285,84.02841639967505L529.65013125,89.4915290064717L530.2429955357144,84.91522990388307L533.4666950892857,96.89601294232983L533.8001812499999,92.30323276539798L534.9488558035714,92.49287715923879L535.7640441964286,86.71603879554328L536.5792325892857,84.23170661065933L538.9877437499999,84.70464896639561L539.2841758928572,89.89726854650405L540.8774986607143,85.15867362790243L541.9520651785715,85.26082917674154L543.65655,91.21274750604493L544.6940625000001,84.96619017029366L546.8802495535715,87.10888076884288L547.4731138392857,82.50387012797245L548.6217883928572,85.63148874345018L549.6963549107143,78.67212241273677L550.6227053571429,82.35066928097541L550.8079754464286,82.59425573525192L551.2896776785715,80.77686594115119L551.9937040178571,79.68643206469068L553.5870267857143,80.99571340548113L554.3281071428571,82.76305304328866L556.4772401785715,81.85991515930658L557.1071584821428,89.17219909558395L558.1076169642857,89.63248612401708L558.1446709821429,86.96334584107694L558.441103125,90.27071583797948L558.8857513392858,82.43742950278772L559.3303995535715,77.73745770167261L559.8862098214286,76.88101628767026L560.0344258928571,83.23954727260212L560.6643441964286,75.27341586356135L561.9982888392858,78.3479036848035L562.554099107143,84.11967971088211L562.9246392857143,91.50982865986259L563.0358013392857,88.08975136258425L563.4804495535715,90.9465591508839L563.5175035714286,90.69710215719704L563.6657196428572,91.52919879431823L564.7032321428571,83.19251927659099L565.6666366071429,79.1722823992879L567.4452294642857,73.81482777290614L568.7791741071429,74.52743833041035L570.7430370535715,77.9003171649129L570.891253125,80.90581529894774L571.6323334821428,77.80026001270204L573.4479803571429,71.02807267428784L574.522546875,76.78246860457273L576.0788156250001,83.18041866274365L577.9685705357143,83.09210536431289L578.5243808035715,86.9662007185878L578.8208129464286,91.25419959781931L579.0431370535714,92.84522809202491L580.8958379464286,83.00036602188163L581.0070000000001,83.96584461312904L581.1181620535714,82.58159010121074L581.5998642857144,82.7328082273932L582.6003227678572,84.7870807697692L583.5266732142857,88.9649567951949L583.7860513392858,87.54459907711697L584.601239732143,88.65592611293687L585.8610763392858,86.37740983442882L587.1579669642857,85.01030006732395L588.010209375,82.22649254039436L588.6030736607142,80.5562080242367L590.5669366071428,82.49934981454203L591.3080169642858,74.8292973887252L591.4191790178572,72.1908075999018L591.7526651785715,69.6259428932745L591.7897191964286,71.03233656929808L592.0120433035714,70.89440194157885L592.7531236607143,75.72049533161402L592.8272316964286,75.67083886563512L595.8656611607142,77.60458665271437L596.0879852678571,74.83775199162869L598.8670366071428,72.1958803616439L601.0902776785715,75.51961155031967L601.3126017857144,69.65968359685849L602.1648441964286,69.08903932478177L603.5358428571429,72.67373609486913L603.572896875,78.75163749025478L603.7952209821428,82.39837832748628L604.1287071428571,67.89631866315841L604.7586254464286,67.04924953122838L605.2032736607143,63.59569555207037L605.4255977678572,63.48710483124228L606.1666781250001,70.29434623207874L607.6117848214286,67.50629523924721L609.4644857142857,71.72408964354833L611.2060245535714,69.34591211946235L612.5399691964286,70.8643181050108L613.4292656250001,73.7389033630065L613.5404276785714,72.51834201780395L616.3194790178572,71.78600521068239L616.541803125,70.36483229307612L617.6534236607143,67.54858687584567L617.9869098214286,71.74946462550747L618.1351258928571,69.36113710863788L618.35745,69.8916822651828L620.5436370535714,71.19178019244299L621.7664196428572,68.04475561546582L621.8034736607143,71.06539503594621L622.0999058035715,70.91423702156777L622.248121875,78.67770887960734L622.8780401785714,74.49985449443108L623.1003642857142,71.011371029992L624.2490388392857,68.9182809513286L625.2494973214286,67.66242690413054L625.9535236607143,73.78131030914506L627.1392522321429,72.54378618548702L627.17630625,72.78304254462557L627.2133602678572,69.9812838601087L628.1026566964287,69.28199948273192L630.9558160714286,72.7895121896392L633.2902191964287,72.93047814711684L634.8464879464286,71.05151605493677L634.9947040178571,75.81476379962874L636.6250808035716,71.80031661311062L637.3291071428572,70.37341913453304L638.7001058035715,74.42613481405317L639.8117263392858,73.91245172176525L640.0711044642857,74.58601269972587L640.4416446428572,76.95369095316886L641.960859375,76.41075623856801L642.5907776785714,73.1396829098075L642.8131017857143,64.30464307921784L644.9992888392858,70.78486918086406L645.592153125,77.61831734185182L645.8144772321428,84.66369873844445L646.8519897321429,75.14613590973335L647.4819080357144,75.3262232125067L647.5560160714285,68.56187976083737L648.7417446428573,68.43035702316911L649.8904191964286,71.29675588056818L651.6319580357143,69.08951186167428L652.0766062499999,71.69224878367123L652.4842004464286,76.19920343686942L656.0043321428573,72.030980395455L657.3753308035714,72.47535907060637L658.2646272321429,74.7055279423638L658.5981133928572,76.04362926541836L658.8204375,73.90117755925104L660.5249223214287,72.61570653555066L660.6360843750001,71.84442392133042L661.3401107142857,69.41811268613162L662.0441370535715,69.925867611679L666.2312410714286,67.28520806700737L666.5276732142858,63.73727067353775L666.7499973214286,65.53559157078934L669.0844004464286,69.55989660914031L670.5295071428571,71.97447963215086L671.3076415178572,70.47791694595719L673.4938285714286,77.43414600090767L673.9755308035715,75.71725843387799L674.3460709821428,78.61420922699347L674.4942870535715,73.47998386952946L676.2358258928572,69.41767782171775L678.9037151785715,65.99852335969729L679.7189035714285,62.96525984915172L680.3488218750001,74.89009340949104L681.0899022321429,81.06322271236132L682.0533066964285,77.89470446075012L683.3131433035715,80.9024476764501L683.6466294642858,76.81646860587011L685.7216544642857,68.47425616352211L687.7225714285714,66.41424119811325L688.6859758928572,60.26937805220132L688.8712459821428,64.43662683132084L691.5020812500001,67.91874693212588L691.6502973214285,68.04447732594218L692.8360258928572,71.065228062232L694.6516727678571,66.98705350400587L696.5784816964286,62.5766071024035L696.949021875,61.89388092810873L696.9860758928572,67.37487022353196L697.9124263392857,67.7181513007859L698.2459125,65.96057828047151L698.76466875,65.88780530161625L700.3209375000001,67.80768318096978L701.2472879464286,75.83200574191522L704.0263392857144,72.79243261181585L706.5089584821428,70.96868873375615L707.6576330357143,63.00204657358705L708.9174696428572,70.00331127748564L709.7697120535714,63.40459093315803L711.1777647321429,69.26306705989487L711.3630348214285,66.88752773593694L711.5483049107144,68.40751664156221L712.9193035714286,62.4471141516039L713.2157357142858,66.72503932429572L713.7344919642858,70.27356526124413L714.1420861607143,73.38445165674653L714.8090584821429,72.30567099404794L714.8831665178571,74.60371509642874L715.7354089285715,69.11014572452393L715.7724629464286,75.63171243471436L715.8095169642858,77.58111079416199L715.9206790178572,70.89658314316387L716.624705357143,68.84940821923169L717.9215959821429,61.730478264872374L718.5515142857143,65.31328695892341L719.0702705357143,60.59057634202071L719.8484049107143,61.684033305212495L720.2189450892857,66.26719081646087L720.5153772321429,69.01708532320987L720.8859174107143,71.64879286059261L722.7015642857143,79.11844238302223L722.9979964285715,88.50908626314668L723.1462124999999,75.48982675788801L724.183725,80.44129188806619L724.70248125,80.46685846617305L724.9248053571429,75.57334424637048L725.4435616071429,68.7101523811557L725.7770477678572,68.51932059536011L726.0364258928571,72.3319048572161L726.0734799107144,71.67414291432965L726.2216959821429,82.07896491526446L727.1480464285714,75.55883728249205L727.5185866071429,72.62853153616192L727.6668026785715,75.7792022550305L728.2596669642858,69.81543801968496L728.7784232142857,75.07311697847769L730.1123678571429,77.24595352041996L730.4088,75.6043429455853L730.8163941964286,80.51000160068452L732.6320410714286,69.70860512707742L732.6690950892857,72.06370474291316L732.8543651785715,74.45853534574792L733.8548236607143,71.9683503741154L735.2628763392856,71.45601022446925L739.3758723214286,71.14860613468159L739.7093584821429,68.01885118080901L740.3022227678572,67.12276904181874L740.4133848214286,70.51220309175795L740.7468709821429,66.65523852172146L741.7843834821429,71.21345561303286L743.0442200892858,71.98484420115307L743.0812741071429,75.39298985402525L743.4147602678572,74.49256474574844L743.5259223214287,79.84293468078243L744.9710290178572,72.25367747513616L745.8973794642858,73.59074815174841L746.5272977678571,75.37476139104905L748.1576745535714,67.60923183462944L749.0469709821429,70.80408076744436L749.862159375,74.68453179379992L750.8996718750001,72.10394824294667L751.3443200892858,73.50091061243467L752.9005888392857,78.2661713674608L753.0117508928571,76.21647365380983L754.530965625,76.95019669228594L754.8273977678572,78.37220134870489L757.8287732142858,80.20717497588959L757.8658272321428,74.43576331886709L761.0895267857143,73.91822882465362L761.3859589285714,75.57124979479215L763.0163357142858,70.67243737687534L763.0533897321428,71.66023325945855L765.2766308035715,66.36228578900841L767.5369258928572,67.11060064007177L767.7963040178571,65.59604788404306L768.8708705357144,78.43210789709252L770.2418691964286,66.49832723825551L770.8717875,64.24691300961996L772.42805625,65.84137697243864L774.2066491071429,67.77982618346317L775.6888098214287,68.94289571007795L776.6151602678572,68.65896659271345L777.3191866071429,77.32454662229475L777.5044566964286,75.65149880671015L778.3566991071428,70.72058678402618L778.5419691964287,73.65266457041577L778.7272392857143,81.30253624224946L779.1718875,77.0565217453497L779.9500218750001,74.50891304720983L781.6915607142857,74.94388949499262L782.4696950892858,79.13195869699558L783.84069375,74.77240438486405L784.4335580357143,71.17490096425183L786.1009888392857,69.01639891188444L786.5826910714286,72.63015184713066L787.9536897321428,74.79840360827848L788.2130678571428,73.15404216496711L788.3612839285715,68.24034196564696L789.287634375,65.29212184605478L790.2510388392858,73.34089810763294L793.2524142857143,73.26130969791308L793.3635763392857,72.23178581874794L793.5488464285716,68.66875899124881L795.4015473214287,70.45802622808259L796.1426276785714,69.56804490351624L796.6984379464286,68.05228527544307L796.8096,78.92407949859916L796.8837080357142,75.62944769915953L797.6247883928572,69.72558528616241L797.8471125000001,71.09212200503077L798.6993549107143,71.91204403635186L799.6257053571428,79.27639308847779L799.6998133928572,69.95021085308667L800.181515625,65.33627234518536L801.6636763392858,71.40384674044458L801.8860004464286,73.08084971093342L802.4047566964285,72.12350982656011L802.8123508928572,65.65848089593607L803.1458370535715,64.7247760375617L804.8503218750001,68.09163645587034L805.1097000000001,75.02060687352218L805.2579160714286,80.15975995744668L805.4802401785714,74.40731430780136L807.666427232143,79.79178441801417L808.6668857142857,83.02246648414189L809.5191281250001,82.99733405715182L812.112909375,85.92756710095773L812.4834495535715,78.84976942724137L812.9280977678573,71.65777832301143L814.1508803571429,73.23320866047357L814.4473125000001,71.23315436295087L814.7807986607144,66.10603845110387L815.0401767857144,65.97508140399566L816.5223375,71.78713217573073L817.0040397321429,69.38373763877183L817.1893098214285,72.85055508326309L817.4116339285714,77.87595804995789L817.5227959821428,71.07349149664145L820.3389013392858,69.93732406465153L820.3759553571429,64.34676943879094L820.4500633928573,61.974207496607846L822.0063321428571,67.42306616463145L822.1174941964285,65.78352719877887L823.26616875,67.74511631926731L824.0813571428572,70.88561145822712L824.2666272321429,64.91574187493632L824.3777892857144,67.22444512496179L824.563059375,64.68258374164378L826.0822741071429,71.99340441165299L826.638084375,66.56218848032512L827.1938946428571,72.13939642152843L827.5273808035714,66.64978368625043L827.6014888392858,75.1372660450836L828.3055151785715,72.37558879371687L829.0465955357143,65.80972827623009L829.4171357142857,64.81552446573806L829.9358919642857,65.20077301277621L831.4551066964286,68.37723464099906L831.5292147321429,68.31956995126615L832.3444031250001,67.30320030409302L833.1966455357143,63.74806601578916L834.7158602678571,64.56029794280681L835.1975625000001,66.02940793235081L835.2346165178571,66.91087392607716L835.9386428571429,66.45798268897965L835.975696875,68.14978961338784L836.0498049107143,67.20133210136606L836.235075,74.48642426081966L836.6426691964286,71.98508372315848L839.3476125000001,70.48427940056172L840.7186111607143,68.60202597367038L840.7556651785715,69.43621558420227L841.3855834821429,68.95495851718806L841.5337995535714,72.59328761031287L842.9047982142857,74.77628506618771L844.0534727678571,81.97670853971266L844.0905267857144,73.53394179049428L844.2016888392858,73.3771359076299L844.2387428571429,65.42888571124462L845.4985794642857,66.55056059341348L845.6838495535715,72.13241968938144L846.0173357142858,71.55445181362887L846.2026058035715,67.28058775484402L846.9066321428571,67.66158181957309L848.1294147321429,73.78080325841051L849.0187111607142,68.61639862171302L849.0557651785715,67.48129750636116L850.3897098214286,68.7637785038167L851.7977625,68.55149626895673L853.2799232142858,62.533501928040664L853.5022473214286,62.849788656824444L853.5763553571429,60.09424819409469L853.6134093750001,60.40446558312351L854.2803816964287,63.53590851654076L854.7620839285714,64.43300344325786L855.0955700892857,64.9712603992881L855.2437861607143,64.31244373957287L857.6152433035714,57.04475791041034L860.0237544642857,63.48362557957955L860.875996875,65.3834045144144L861.4688611607143,68.48681354198203L863.988534375,67.4035464585225L864.0996964285714,62.82650287511353L864.2849665178572,62.04381839173482L866.7675857142857,62.555978535040936L867.4345580357143,58.9361912876912L870.213609375,56.764318939281395L871.6587160714287,60.370049696902186L871.6957700892858,59.58817565147467L872.9556066964286,55.191967890884825L874.0301732142857,58.44486823453087L874.5118754464286,61.37837927405184L874.9194696428572,64.12025673109781L876.3645763392857,64.78361237199209L876.8833325892857,61.25454242319523L877.5132508928572,58.155329620583814L877.9949531249999,58.25934360568357L879.0695196428572,61.2670644967435L879.1065736607143,58.16284286471273L880.6257883928572,60.22739321882767L881.5150848214286,61.46612343129664L881.7374089285714,61.22759072544466L882.4784892857143,61.084471101933445L882.7008133928572,60.01682849449338L883.4789477678572,62.32155543002932L883.7012718750001,61.740849924684255L885.4428107142858,61.392426621477284L885.9245129464285,64.12868513955306L888.1107000000001,63.80689858373188L889.2964285714286,58.704972483572476L889.5558066964287,57.6073584901435L892.6683441964286,60.875873427419435L893.4094245535715,62.83698238978508L897.4853665178572,62.050106100537676L898.4117169642857,60.59620949365598L898.485825,60.70564236286026L898.8934191964287,60.771302084382796L899.8938776785715,58.84715625062972L900.1532558035715,58.674439583711205L900.5608500000001,59.55258041689336L900.7461200892858,59.09769408346938L901.0054982142858,55.879449783415L901.0425522321428,57.87558653671567L901.561308482143,57.10972692202938L902.5988209821429,52.723127819884326L904.8220620535715,61.87241835859726L905.1555482142858,62.453138515158344L905.2667102678572,59.85625810909505L906.5265468750001,60.26167153212367L906.8229790178572,63.45023208594097L908.0457616071429,63.3998267515646L908.1198696428572,57.47895855093873L908.3051397321428,60.79883346389653L909.4908683035715,66.71784174500465L910.1948946428572,65.36039254700279L912.8627839285715,70.43654802820174L912.9368919642857,70.53692881692103L913.4556482142858,64.70653229015267L914.7154848214286,65.13537770742494L917.4204281250001,62.447372457788276L917.67980625,57.88925680800628L918.1244544642857,54.17261658480379L919.9401013392858,52.9244032842156L920.0142093750001,59.04787113719607L920.4218035714285,58.79486851565099L920.4588575892858,60.60660860939066L920.6441276785714,59.73011099896769L923.0155848214287,56.25889993271403L923.7937191964286,60.06679829296172L923.90488125,58.424453975777L923.9419352678573,59.402589052132896L924.7941776785715,59.00769926461305L929.351821875,54.843682058767854L929.5000379464286,60.19943840192735L929.5370919642858,63.41289220782312L930.1670102678572,63.37742282469395L930.7228205357143,60.41082869481636L931.0933607142858,60.594413883556456L931.5009549107143,66.59518999680057L931.686225,70.19565566474705L931.7232790178572,66.46531006551493L931.8714950892858,71.09949853930902L932.0197111607143,72.89824079025209L932.2420352678572,65.14154864081792L933.1313316964286,64.4146166844908L933.5018718750001,58.087832510694454L934.4652763392858,64.10947033975003L934.539384375,56.92297387051667L934.8728705357142,56.53815932231004L936.1327071428572,56.30727059338602L936.9849495535715,55.18696652269824L938.2447861607144,56.478325746952294L938.8747044642857,56.27137044817141L939.7640008928572,61.056051435569486L940.468027232143,62.94508919467512L940.9867834821429,61.1331993501384L942.2095660714286,61.027836276749724L942.9877004464287,61.946389266049835L944.2104830357143,58.570437726296575" style="fill: none;" fill="none"></path></g></g></g></g><g opacity="0.2"><g><g><g><path stroke="rgb(0, 119, 187)" stroke-width="2px" d="M74.14508973214286,345.5833333333333L111.19910758928572,303.8580729166667L148.25312544642858,244.9518229166667L185.30714330357142,151.68359375000003L222.36116116071432,105.04947916666674L259.41517901785716,122.23046875000003L296.469196875,112.41276041666674L333.52321473214283,122.23046875000003L370.5772325892857,107.50390625000006L407.6312504464286,102.59505208333337L444.68526830357143,100.14062500000006L481.7392861607143,73.14192708333343L518.7933040178572,97.68619791666674L555.8473218749999,85.41406250000006L592.9013397321429,78.05078125000006L629.9553575892858,95.23177083333337L667.0093754464286,78.05078125000006L704.0633933035715,75.59635416666674L741.1174111607143,65.77864583333343L778.1714290178571,73.14192708333343L815.225446875,92.77734375000006L852.279464732143,65.77864583333343L889.3334825892858,90.32291666666674L926.3875004464286,73.14192708333343" style="fill: none;" fill="none"></path></g><g><path stroke="rgb(255, 112, 67)" stroke-width="2px" d="M74.81206205357142,345.5833333333333L75.70135848214287,345.5833333333333L75.81252053571428,345.5833333333333L76.775925,345.5833333333333L77.62816741071428,345.5833333333333L79.99962455357144,345.5833333333333L80.33311071428572,345.5833333333333L82.63045982142857,343.12890625L82.81572991071428,345.5833333333333L83.59386428571429,345.5833333333333L84.26083660714286,345.5833333333333L85.55772723214285,345.5833333333333L85.63183526785714,345.5833333333333L85.9282674107143,345.5833333333333L87.7439142857143,343.12890625L89.74483125,345.5833333333333L91.18993794642859,340.6744791666667L91.70869419642858,345.5833333333333L94.00604330357143,335.765625L95.00650178571429,328.40234375L95.59936607142858,340.6744791666667L95.85874419642857,335.765625L95.89579821428572,340.6744791666667L97.63733705357144,335.765625L98.1190392857143,338.2200520833333L98.63779553571429,333.3111979166667L99.00833571428572,318.5846354166667L100.60165848214285,330.85677083333337L100.89809062500001,325.9479166666667L102.49141339285714,313.67578125L102.71373750000001,318.5846354166667L103.23249375,323.49348958333337L103.30660178571429,328.40234375L103.86241205357143,321.0390625L104.0847361607143,335.765625L105.12224866071429,325.9479166666667L109.16113660714286,323.49348958333337L110.12454107142857,318.5846354166667L110.16159508928571,323.49348958333337L110.38391919642856,303.8580729166667L111.38437767857144,325.9479166666667L111.71786383928573,325.9479166666667L113.53351071428573,316.13020833333337L113.64467276785716,306.3125L114.64513125,321.0390625L114.86745535714286,321.0390625L115.05272544642857,306.3125L116.97953437500001,296.4947916666667L117.16480446428572,301.40364583333337L117.20185848214285,301.40364583333337L117.86883080357143,303.8580729166667L120.24028794642858,286.67708333333337L120.87020625000001,311.2213541666667L122.90817723214286,311.2213541666667L123.0193392857143,306.3125L123.53809553571429,269.49609375L123.68631160714287,279.31380208333337L125.46490446428572,291.5859375L125.72428258928572,289.1315104166667L126.53947098214287,291.5859375L126.98411919642857,284.22265625L127.354659375,274.4049479166667L128.4662799107143,271.95052083333337L128.87387410714285,262.1328125L129.39263035714285,249.86067708333337L130.57835892857145,254.76953125L131.65292544642858,262.1328125L132.24578973214287,254.76953125L132.83865401785715,279.31380208333337L132.9868700892857,249.86067708333337L133.61678839285713,286.67708333333337L134.91367901785713,276.859375L136.80343392857145,244.9518229166667L137.47040625000002,267.0416666666667L137.80389241071427,240.04296875000003L138.3226486607143,264.58723958333337L138.39675669642858,254.76953125L138.50791875000002,230.2252604166667L140.1382955357143,244.9518229166667L141.8057263392857,235.13411458333337L142.4726986607143,249.86067708333337L142.8061848214286,257.22395833333337L143.2878870535714,249.86067708333337L143.39904910714284,247.40625000000003L143.69548125000003,257.22395833333337L145.17764196428573,227.77083333333337L145.80756026785716,227.77083333333337L146.1781004464286,252.31510416666669L146.28926249999998,217.95312500000003L148.29017946428573,188.50000000000003L148.73482767857143,230.2252604166667L149.58707008928573,225.31640625000003L151.10628482142857,205.68098958333337L151.40271696428573,213.04427083333337L151.5509330357143,227.77083333333337L151.8103111607143,227.77083333333337L155.1822267857143,205.68098958333337L155.33044285714286,208.1354166666667L155.626875,220.40755208333337L156.07152321428572,208.1354166666667L156.81260357142858,188.50000000000003L156.9978736607143,213.04427083333337L157.03492767857142,220.40755208333337L157.7760080357143,198.31770833333337L157.961278125,205.68098958333337L159.62870892857143,200.7721354166667L160.07335714285713,193.4088541666667L161.03676160714286,225.31640625000003L161.37024776785714,208.1354166666667L162.66713839285714,213.04427083333337L162.7041924107143,210.58984375000003L162.77830044642857,195.86328125000003L164.40867723214288,168.86458333333337L165.03859553571428,193.4088541666667L165.11270357142857,203.22656250000003L165.2979736607143,205.68098958333337L166.22432410714288,200.7721354166667L166.26137812500002,193.4088541666667L166.63191830357144,193.4088541666667L166.7060263392857,198.31770833333337L166.89129642857145,205.68098958333337L167.41005267857145,215.4986979166667L167.63237678571429,183.59114583333337L167.9658629464286,222.8619791666667L168.52167321428573,220.40755208333337L168.7439973214286,208.1354166666667L173.63512767857145,173.77343750000003L174.30210000000002,210.58984375000003L175.6730986607143,205.68098958333337L176.19185491071428,176.22786458333337L177.4887455357143,173.77343750000003L181.45352544642859,171.3190104166667L184.08436071428574,186.0455729166667L184.38079285714286,178.6822916666667L185.7147375,183.59114583333337L186.71519598214286,195.86328125000003L186.8263580357143,181.13671875000003L188.97549107142856,190.95442708333337L191.27284017857144,176.22786458333337L192.56973080357145,166.41015625000003L193.8295674107143,190.95442708333337L194.20010758928572,151.68359375000003L194.3483236607143,146.77473958333337L194.4224316964286,161.50130208333337L194.4594857142857,171.3190104166667L196.60861875,176.22786458333337L198.0907794642857,156.5924479166667L199.23945401785716,159.04687500000003L200.42518258928573,163.9557291666667L201.24037098214288,149.2291666666667L201.9443973214286,154.13802083333337L202.5002075892857,173.77343750000003L203.09307187500002,139.41145833333337L207.53955401785714,122.23046875000003L208.20652633928572,166.41015625000003L208.28063437500003,163.9557291666667L209.61457901785715,149.2291666666667L210.13333526785715,141.8658854166667L212.20836026785716,134.5026041666667L212.35657633928574,144.32031250000003L212.7641705357143,141.8658854166667L214.69097946428573,132.04817708333337L215.46911383928574,149.2291666666667L215.65438392857143,132.04817708333337L215.72849196428572,141.8658854166667L216.09903214285717,156.5924479166667L217.32181473214285,173.77343750000003L219.693271875,168.86458333333337L220.730784375,149.2291666666667L221.768296875,144.32031250000003L223.17634955357144,127.13932291666671L223.58394375,127.13932291666671L223.69510580357144,139.41145833333337L225.80718482142856,146.77473958333337L225.99245491071432,134.5026041666667L226.40004910714288,161.50130208333337L229.10499241071432,119.77604166666674L229.54964062500002,146.77473958333337L229.62374866071428,129.59375000000003L229.84607276785715,129.59375000000003L230.7724232142857,149.2291666666667L230.95769330357146,129.59375000000003L231.06885535714287,163.9557291666667L232.10636785714289,122.23046875000003L232.2175299107143,163.9557291666667L233.62558258928573,132.04817708333337L234.10728482142858,154.13802083333337L234.18139285714284,114.86718750000006L237.18276830357146,144.32031250000003L238.40555089285715,136.95703125000003L240.5917379464286,146.77473958333337L241.22165625000002,151.68359375000003L241.99979062500003,132.04817708333337L243.77838348214286,141.8658854166667L243.8895455357143,151.68359375000003L245.631084375,109.95833333333337L246.96502901785718,149.2291666666667L247.11324508928573,132.04817708333337L247.40967723214285,122.23046875000003L248.78067589285718,134.5026041666667L250.15167455357144,139.41145833333337L250.44810669642857,141.8658854166667L251.55972723214288,95.23177083333337L252.00437544642858,144.32031250000003L252.07848348214287,129.59375000000003L253.4865361607143,129.59375000000003L253.93118437500002,129.59375000000003L255.487453125,141.8658854166667L258.0071263392857,132.04817708333337L258.3406125,129.59375000000003L258.45177455357145,119.77604166666674L261.2678799107143,146.77473958333337L261.34198794642856,112.41276041666674L261.37904196428576,139.41145833333337L263.3429049107143,154.13802083333337L264.3804174107143,119.77604166666674L266.82598258928573,136.95703125000003L268.2710892857143,141.8658854166667L271.60595089285715,119.77604166666674L272.1988151785714,136.95703125000003L272.71757142857143,124.68489583333337L274.97786651785714,105.04947916666674L275.7930549107143,127.13932291666671L278.4979982142857,139.41145833333337L278.57210625000005,119.77604166666674L279.75783482142856,105.04947916666674L281.16588750000005,114.86718750000006L283.8708308035715,117.32161458333337L284.019046875,129.59375000000003L284.5748571428572,129.59375000000003L286.094071875,124.68489583333337L286.20523392857143,117.32161458333337L288.16909687500004,114.86718750000006L289.3548254464286,109.95833333333337L289.98474375000006,102.59505208333337L290.09590580357144,129.59375000000003L291.3557424107143,134.5026041666667L291.4298504464286,100.14062500000006L291.6892285714286,124.68489583333337L293.0231732142857,105.04947916666674L293.8013075892857,109.95833333333337L294.69060401785714,114.86718750000006L294.87587410714286,127.13932291666671L295.09819821428573,114.86718750000006L296.09865669642863,112.41276041666674L296.8397370535714,117.32161458333337L297.0250071428572,102.59505208333337L297.5808174107143,107.50390625000006L299.35941026785713,112.41276041666674L300.95273303571435,112.41276041666674L301.32327321428573,114.86718750000006L303.17597410714285,109.95833333333337L303.88000044642854,107.50390625000006L304.3617026785715,132.04817708333337L304.58402678571434,90.32291666666674L305.06572901785717,114.86718750000006L307.17780803571435,105.04947916666674L308.03005044642856,127.13932291666671L308.21532053571434,136.95703125000003L309.10461696428575,114.86718750000006L309.9198053571429,90.32291666666674L310.4015075892857,132.04817708333337L311.29080401785717,95.23177083333337L314.8479897321429,97.68619791666674L314.99620580357146,100.14062500000006L315.7372861607143,114.86718750000006L317.73820312500004,122.23046875000003L318.10874330357143,95.23177083333337L318.8127696428571,114.86718750000006L320.81368660714287,107.50390625000006L321.14717276785717,109.95833333333337L321.59182098214285,107.50390625000006L321.7029830357143,117.32161458333337L322.25879330357145,90.32291666666674L322.3699553571429,124.68489583333337L322.8146035714286,122.23046875000003L323.81506205357147,117.32161458333337L323.96327812500004,105.04947916666674L324.37087232142864,95.23177083333337L327.29813973214283,107.50390625000006L327.81689598214285,102.59505208333337L328.113328125,107.50390625000006L328.6691383928572,127.13932291666671L331.07764955357146,114.86718750000006L332.263378125,119.77604166666674L333.22678258928573,92.77734375000006L334.04197098214286,105.04947916666674L337.450940625,112.41276041666674L337.74737276785714,105.04947916666674L339.2665875,82.95963541666674L341.5268825892857,112.41276041666674L342.67555714285714,97.68619791666674L344.63942008928575,102.59505208333337L345.0470142857143,102.59505208333337L345.7139866071429,92.77734375000006L346.08452678571433,114.86718750000006L346.1215808035715,95.23177083333337L346.82560714285717,100.14062500000006L347.6778495535715,102.59505208333337L348.3818758928572,112.41276041666674L349.82698258928576,87.86848958333343L349.9381446428572,85.41406250000006L350.19752276785715,107.50390625000006L350.5680629464286,97.68619791666674L350.67922500000003,97.68619791666674L351.23503526785714,117.32161458333337L352.45781785714286,85.41406250000006L353.1618441964286,97.68619791666674L356.08911160714285,97.68619791666674L357.38600223214286,87.86848958333343L358.0159205357143,78.05078125000006L358.5717308035714,95.23177083333337L358.979325,90.32291666666674L359.2016491071428,90.32291666666674L360.4985397321429,114.86718750000006L361.16551205357143,82.95963541666674L361.6842683035714,119.77604166666674L362.4253486607143,92.77734375000006L362.72178080357145,117.32161458333337L363.0923209821429,95.23177083333337L364.38921160714284,70.68750000000006L364.57448169642856,107.50390625000006L366.8347767857143,85.41406250000006L366.8718308035714,78.05078125000006L368.05755937500004,109.95833333333337L370.24374642857146,87.86848958333343L371.54063705357146,85.41406250000006L371.94823125,95.23177083333337L372.3928794642857,102.59505208333337L373.0227977678572,100.14062500000006L377.24695580357144,60.869791666666686L377.395171875,85.41406250000006L378.54384642857144,107.50390625000006L378.76617053571425,105.04947916666674L380.9153035714286,95.23177083333337L381.32289776785717,78.05078125000006L382.69389642857146,80.50520833333343L382.8791665178572,117.32161458333337L382.9532745535714,107.50390625000006L383.1755986607143,102.59505208333337L384.0278410714286,87.86848958333343L384.21311116071433,92.77734375000006L384.54659732142864,87.86848958333343L387.8814589285714,80.50520833333343L387.99262098214285,97.68619791666674L389.03013348214284,80.50520833333343L389.2154035714286,100.14062500000006L389.4006736607143,85.41406250000006L391.54980669642856,73.14192708333343L392.5132111607143,75.59635416666674L392.8466973214286,95.23177083333337L394.06947991071434,124.68489583333337L394.1065339285714,85.41406250000006L394.4400200892857,85.41406250000006L395.84807276785716,85.41406250000006L396.1445049107143,112.41276041666674L396.32977500000004,73.14192708333343L400.25750089285714,87.86848958333343L400.92447321428574,87.86848958333343L401.0356352678571,97.68619791666674L401.81376964285715,80.50520833333343L402.22136383928574,100.14062500000006L403.11066026785716,82.95963541666674L403.37003839285717,97.68619791666674L403.9999566964286,78.05078125000006L404.07406473214286,73.14192708333343L404.1852267857143,105.04947916666674L404.9633611607143,85.41406250000006L405.2227392857143,112.41276041666674L406.0749816964286,90.32291666666674L406.7049,105.04947916666674L407.37187232142855,82.95963541666674L407.5941964285714,92.77734375000006L407.9647366071429,112.41276041666674L409.66922142857146,85.41406250000006L409.96565357142856,82.95963541666674L410.7437879464286,92.77734375000006L413.3746232142857,85.41406250000006L416.0054584821429,90.32291666666674L416.26483660714285,100.14062500000006L417.26529508928576,92.77734375000006L419.00683392857144,90.32291666666674L419.34032008928574,75.59635416666674L420.5260486607143,100.14062500000006L421.3041830357143,82.95963541666674L422.89750580357145,90.32291666666674L423.0086678571429,117.32161458333337L423.7497482142857,92.77734375000006L424.00912633928573,85.41406250000006L424.97253080357143,105.04947916666674L427.56631205357144,90.32291666666674L427.89979821428574,95.23177083333337L428.15917633928575,82.95963541666674L428.6408785714286,97.68619791666674L429.45606696428575,82.95963541666674L430.86411964285713,90.32291666666674L431.7534160714286,80.50520833333343L431.97574017857147,102.59505208333337L432.82798258928574,105.04947916666674L433.4949549107143,92.77734375000006L436.0887361607143,100.14062500000006L437.7191129464286,97.68619791666674L438.7566254464286,85.41406250000006L438.8677875,80.50520833333343L440.34994821428575,85.41406250000006L441.23924464285716,97.68619791666674L443.64775580357144,87.86848958333343L446.5379691964286,100.14062500000006L446.72323928571427,92.77734375000006L446.8344013392857,114.86718750000006L447.79780580357146,119.77604166666674L448.65004821428573,75.59635416666674L449.4281825892857,87.86848958333343L450.021046875,95.23177083333337L450.91034330357144,78.05078125000006L451.5402616071429,102.59505208333337L454.171096875,75.59635416666674L454.9121772321429,82.95963541666674L455.1715553571429,95.23177083333337L459.358659375,80.50520833333343L459.46982142857144,85.41406250000006L460.2479558035715,85.41406250000006L460.43322589285714,87.86848958333343L462.4341428571429,100.14062500000006L462.8046830357143,92.77734375000006L462.9528991071429,109.95833333333337L464.027465625,85.41406250000006L465.2131941964286,107.50390625000006L465.25024821428576,114.86718750000006L466.84357098214286,75.59635416666674L467.17705714285717,97.68619791666674L467.8069754464286,97.68619791666674L467.9922455357143,97.68619791666674L468.3257316964286,87.86848958333343L468.91859598214285,100.14062500000006L469.5485142857143,97.68619791666674L471.03067500000003,82.95963541666674L472.4016736607143,68.23307291666674L472.73515982142857,87.86848958333343L472.7722138392857,80.50520833333343L473.5874022321429,78.05078125000006L473.8467803571429,87.86848958333343L474.8842928571429,109.95833333333337L475.2548330357143,70.68750000000006L475.440103125,90.32291666666674L475.8476973214286,102.59505208333337L476.1811834821429,85.41406250000006L476.69993973214287,100.14062500000006L478.1079924107143,85.41406250000006L478.21915446428574,107.50390625000006L479.4789910714286,90.32291666666674L479.6272071428572,90.32291666666674L480.4794495535715,117.32161458333337L480.7017736607143,90.32291666666674L480.7758816964286,102.59505208333337L482.25804241071427,80.50520833333343L482.48036651785714,85.41406250000006L482.96206875000007,95.23177083333337L483.14733883928574,107.50390625000006L483.66609508928576,78.05078125000006L485.5187959821429,87.86848958333343L486.22282232142857,100.14062500000006L486.55630848214287,105.04947916666674L487.2232808035714,100.14062500000006L488.2237392857143,95.23177083333337L489.07598169642864,82.95963541666674L489.1500897321429,102.59505208333337L489.18714375,80.50520833333343L491.37333080357143,70.68750000000006L491.81797901785717,78.05078125000006L493.22603169642855,80.50520833333343L495.11578660714287,97.68619791666674L497.26491964285714,90.32291666666674L498.59886428571434,107.50390625000006L499.22878258928574,100.14062500000006L499.9698629464286,73.14192708333343L501.1185375,95.23177083333337L501.4520236607143,95.23177083333337L502.08194196428576,73.14192708333343L502.37837410714286,68.23307291666674L502.71186026785716,80.50520833333343L503.8605348214286,95.23177083333337L505.30564151785717,109.95833333333337L505.7502897321429,75.59635416666674L506.1949379464286,82.95963541666674L506.60253214285717,78.05078125000006L507.12128839285714,75.59635416666674L507.1953964285715,82.95963541666674L508.52934107142863,82.95963541666674L509.8632857142857,85.41406250000006L510.86374419642857,97.68619791666674L511.41955446428574,90.32291666666674L512.531175,87.86848958333343L513.4204714285714,90.32291666666674L514.08744375,92.77734375000006L516.3106848214286,90.32291666666674L516.7923870535715,90.32291666666674L516.8664950892858,75.59635416666674L517.6446294642858,92.77734375000006L517.8298995535714,75.59635416666674L518.3486558035714,87.86848958333343L518.7191959821429,87.86848958333343L518.9044660714286,82.95963541666674L519.1638441964286,92.77734375000006L519.8678705357144,90.32291666666674L520.31251875,102.59505208333337L523.9067584821429,85.41406250000006L524.46256875,85.41406250000006L524.8701629464286,92.77734375000006L525.0183790178571,75.59635416666674L525.6112433035714,85.41406250000006L526.8340258928572,78.05078125000006L527.1675120535715,80.50520833333343L529.5389691964285,87.86848958333343L529.65013125,97.68619791666674L530.2429955357144,78.05078125000006L533.4666950892857,114.86718750000006L533.8001812499999,85.41406250000006L534.9488558035714,92.77734375000006L535.7640441964286,78.05078125000006L536.5792325892857,80.50520833333343L538.9877437499999,85.41406250000006L539.2841758928572,97.68619791666674L540.8774986607143,78.05078125000006L541.9520651785715,85.41406250000006L543.65655,100.14062500000006L544.6940625000001,75.59635416666674L546.8802495535715,90.32291666666674L547.4731138392857,75.59635416666674L548.6217883928572,90.32291666666674L549.6963549107143,68.23307291666674L550.6227053571429,87.86848958333343L550.8079754464286,82.95963541666674L551.2896776785715,78.05078125000006L551.9937040178571,78.05078125000006L553.5870267857143,82.95963541666674L554.3281071428571,85.41406250000006L556.4772401785715,80.50520833333343L557.1071584821428,100.14062500000006L558.1076169642857,90.32291666666674L558.1446709821429,82.95963541666674L558.441103125,95.23177083333337L558.8857513392858,70.68750000000006L559.3303995535715,70.68750000000006L559.8862098214286,75.59635416666674L560.0344258928571,92.77734375000006L560.6643441964286,63.32421875000006L561.9982888392858,82.95963541666674L562.554099107143,92.77734375000006L562.9246392857143,102.59505208333337L563.0358013392857,82.95963541666674L563.4804495535715,95.23177083333337L563.5175035714286,90.32291666666674L563.6657196428572,92.77734375000006L564.7032321428571,70.68750000000006L565.6666366071429,73.14192708333343L567.4452294642857,65.77864583333343L568.7791741071429,75.59635416666674L570.7430370535715,82.95963541666674L570.891253125,85.41406250000006L571.6323334821428,73.14192708333343L573.4479803571429,60.869791666666686L574.522546875,85.41406250000006L576.0788156250001,92.77734375000006L577.9685705357143,82.95963541666674L578.5243808035715,92.77734375000006L578.8208129464286,97.68619791666674L579.0431370535714,95.23177083333337L580.8958379464286,68.23307291666674L581.0070000000001,85.41406250000006L581.1181620535714,80.50520833333343L581.5998642857144,82.95963541666674L582.6003227678572,87.86848958333343L583.5266732142857,95.23177083333337L583.7860513392858,85.41406250000006L584.601239732143,90.32291666666674L585.8610763392858,82.95963541666674L587.1579669642857,82.95963541666674L588.010209375,78.05078125000006L588.6030736607142,78.05078125000006L590.5669366071428,85.41406250000006L591.3080169642858,63.32421875000006L591.4191790178572,68.23307291666674L591.7526651785715,65.77864583333343L591.7897191964286,73.14192708333343L592.0120433035714,70.68750000000006L592.7531236607143,82.95963541666674L592.8272316964286,75.59635416666674L595.8656611607142,80.50520833333343L596.0879852678571,70.68750000000006L598.8670366071428,68.23307291666674L601.0902776785715,80.50520833333343L601.3126017857144,60.869791666666686L602.1648441964286,68.23307291666674L603.5358428571429,78.05078125000006L603.572896875,87.86848958333343L603.7952209821428,87.86848958333343L604.1287071428571,46.143229166666686L604.7586254464286,65.77864583333343L605.2032736607143,58.41536458333337L605.4255977678572,63.32421875000006L606.1666781250001,80.50520833333343L607.6117848214286,63.32421875000006L609.4644857142857,78.05078125000006L611.2060245535714,65.77864583333343L612.5399691964286,73.14192708333343L613.4292656250001,78.05078125000006L613.5404276785714,70.68750000000006L616.3194790178572,70.68750000000006L616.541803125,68.23307291666674L617.6534236607143,63.32421875000006L617.9869098214286,78.05078125000006L618.1351258928571,65.77864583333343L618.35745,70.68750000000006L620.5436370535714,73.14192708333343L621.7664196428572,63.32421875000006L621.8034736607143,75.59635416666674L622.0999058035715,70.68750000000006L622.248121875,90.32291666666674L622.8780401785714,68.23307291666674L623.1003642857142,65.77864583333343L624.2490388392857,65.77864583333343L625.2494973214286,65.77864583333343L625.9535236607143,82.95963541666674L627.1392522321429,70.68750000000006L627.17630625,73.14192708333343L627.2133602678572,65.77864583333343L628.1026566964287,68.23307291666674L630.9558160714286,78.05078125000006L633.2902191964287,73.14192708333343L634.8464879464286,68.23307291666674L634.9947040178571,82.95963541666674L636.6250808035716,65.77864583333343L637.3291071428572,68.23307291666674L638.7001058035715,80.50520833333343L639.8117263392858,73.14192708333343L640.0711044642857,75.59635416666674L640.4416446428572,80.50520833333343L641.960859375,75.59635416666674L642.5907776785714,68.23307291666674L642.8131017857143,51.05208333333337L644.9992888392858,80.50520833333343L645.592153125,87.86848958333343L645.8144772321428,95.23177083333337L646.8519897321429,60.869791666666686L647.4819080357144,75.59635416666674L647.5560160714285,58.41536458333337L648.7417446428573,68.23307291666674L649.8904191964286,75.59635416666674L651.6319580357143,65.77864583333343L652.0766062499999,75.59635416666674L652.4842004464286,82.95963541666674L656.0043321428573,65.77864583333343L657.3753308035714,73.14192708333343L658.2646272321429,78.05078125000006L658.5981133928572,78.05078125000006L658.8204375,70.68750000000006L660.5249223214287,70.68750000000006L660.6360843750001,70.68750000000006L661.3401107142857,65.77864583333343L662.0441370535715,70.68750000000006L666.2312410714286,63.32421875000006L666.5276732142858,58.41536458333337L666.7499973214286,68.23307291666674L669.0844004464286,75.59635416666674L670.5295071428571,75.59635416666674L671.3076415178572,68.23307291666674L673.4938285714286,87.86848958333343L673.9755308035715,73.14192708333343L674.3460709821428,82.95963541666674L674.4942870535715,65.77864583333343L676.2358258928572,63.32421875000006L678.9037151785715,60.869791666666686L679.7189035714285,58.41536458333337L680.3488218750001,92.77734375000006L681.0899022321429,90.32291666666674L682.0533066964285,73.14192708333343L683.3131433035715,85.41406250000006L683.6466294642858,70.68750000000006L685.7216544642857,55.9609375L687.7225714285714,63.32421875000006L688.6859758928572,51.05208333333337L688.8712459821428,70.68750000000006L691.5020812500001,73.14192708333343L691.6502973214285,68.23307291666674L692.8360258928572,75.59635416666674L694.6516727678571,60.869791666666686L696.5784816964286,55.9609375L696.949021875,60.869791666666686L696.9860758928572,75.59635416666674L697.9124263392857,68.23307291666674L698.2459125,63.32421875000006L698.76466875,65.77864583333343L700.3209375000001,70.68750000000006L701.2472879464286,87.86848958333343L704.0263392857144,68.23307291666674L706.5089584821428,68.23307291666674L707.6576330357143,51.05208333333337L708.9174696428572,80.50520833333343L709.7697120535714,53.506510416666686L711.1777647321429,78.05078125000006L711.3630348214285,63.32421875000006L711.5483049107144,70.68750000000006L712.9193035714286,53.506510416666686L713.2157357142858,73.14192708333343L713.7344919642858,75.59635416666674L714.1420861607143,78.05078125000006L714.8090584821429,70.68750000000006L714.8831665178571,78.05078125000006L715.7354089285715,60.869791666666686L715.7724629464286,85.41406250000006L715.8095169642858,80.50520833333343L715.9206790178572,60.869791666666686L716.624705357143,65.77864583333343L717.9215959821429,51.05208333333337L718.5515142857143,70.68750000000006L719.0702705357143,53.506510416666686L719.8484049107143,63.32421875000006L720.2189450892857,73.14192708333343L720.5153772321429,73.14192708333343L720.8859174107143,75.59635416666674L722.7015642857143,90.32291666666674L722.9979964285715,102.59505208333337L723.1462124999999,55.9609375L724.183725,87.86848958333343L724.70248125,80.50520833333343L724.9248053571429,68.23307291666674L725.4435616071429,58.41536458333337L725.7770477678572,68.23307291666674L726.0364258928571,78.05078125000006L726.0734799107144,70.68750000000006L726.2216959821429,97.68619791666674L727.1480464285714,65.77864583333343L727.5185866071429,68.23307291666674L727.6668026785715,80.50520833333343L728.2596669642858,60.869791666666686L728.7784232142857,82.95963541666674L730.1123678571429,80.50520833333343L730.4088,73.14192708333343L730.8163941964286,87.86848958333343L732.6320410714286,53.506510416666686L732.6690950892857,75.59635416666674L732.8543651785715,78.05078125000006L733.8548236607143,68.23307291666674L735.2628763392856,70.68750000000006L739.3758723214286,70.68750000000006L739.7093584821429,63.32421875000006L740.3022227678572,65.77864583333343L740.4133848214286,75.59635416666674L740.7468709821429,60.869791666666686L741.7843834821429,78.05078125000006L743.0442200892858,73.14192708333343L743.0812741071429,80.50520833333343L743.4147602678572,73.14192708333343L743.5259223214287,87.86848958333343L744.9710290178572,60.869791666666686L745.8973794642858,75.59635416666674L746.5272977678571,78.05078125000006L748.1576745535714,55.9609375L749.0469709821429,75.59635416666674L749.862159375,80.50520833333343L750.8996718750001,68.23307291666674L751.3443200892858,75.59635416666674L752.9005888392857,85.41406250000006L753.0117508928571,73.14192708333343L754.530965625,78.05078125000006L754.8273977678572,80.50520833333343L757.8287732142858,82.95963541666674L757.8658272321428,65.77864583333343L761.0895267857143,73.14192708333343L761.3859589285714,78.05078125000006L763.0163357142858,63.32421875000006L763.0533897321428,73.14192708333343L765.2766308035715,58.41536458333337L767.5369258928572,68.23307291666674L767.7963040178571,63.32421875000006L768.8708705357144,97.68619791666674L770.2418691964286,48.59765625L770.8717875,60.869791666666686L772.42805625,68.23307291666674L774.2066491071429,70.68750000000006L775.6888098214287,70.68750000000006L776.6151602678572,68.23307291666674L777.3191866071429,90.32291666666674L777.5044566964286,73.14192708333343L778.3566991071428,63.32421875000006L778.5419691964287,78.05078125000006L778.7272392857143,92.77734375000006L779.1718875,70.68750000000006L779.9500218750001,70.68750000000006L781.6915607142857,75.59635416666674L782.4696950892858,85.41406250000006L783.84069375,68.23307291666674L784.4335580357143,65.77864583333343L786.1009888392857,65.77864583333343L786.5826910714286,78.05078125000006L787.9536897321428,78.05078125000006L788.2130678571428,70.68750000000006L788.3612839285715,60.869791666666686L789.287634375,60.869791666666686L790.2510388392858,85.41406250000006L793.2524142857143,73.14192708333343L793.3635763392857,70.68750000000006L793.5488464285716,63.32421875000006L795.4015473214287,73.14192708333343L796.1426276785714,68.23307291666674L796.6984379464286,65.77864583333343L796.8096,95.23177083333337L796.8837080357142,70.68750000000006L797.6247883928572,60.869791666666686L797.8471125000001,73.14192708333343L798.6993549107143,73.14192708333343L799.6257053571428,90.32291666666674L799.6998133928572,55.9609375L800.181515625,58.41536458333337L801.6636763392858,80.50520833333343L801.8860004464286,75.59635416666674L802.4047566964285,70.68750000000006L802.8123508928572,55.9609375L803.1458370535715,63.32421875000006L804.8503218750001,73.14192708333343L805.1097000000001,85.41406250000006L805.2579160714286,87.86848958333343L805.4802401785714,65.77864583333343L807.666427232143,87.86848958333343L808.6668857142857,87.86848958333343L809.5191281250001,82.95963541666674L812.112909375,90.32291666666674L812.4834495535715,68.23307291666674L812.9280977678573,60.869791666666686L814.1508803571429,75.59635416666674L814.4473125000001,68.23307291666674L814.7807986607144,58.41536458333337L815.0401767857144,65.77864583333343L816.5223375,80.50520833333343L817.0040397321429,65.77864583333343L817.1893098214285,78.05078125000006L817.4116339285714,85.41406250000006L817.5227959821428,60.869791666666686L820.3389013392858,68.23307291666674L820.3759553571429,55.9609375L820.4500633928573,58.41536458333337L822.0063321428571,75.59635416666674L822.1174941964285,63.32421875000006L823.26616875,70.68750000000006L824.0813571428572,75.59635416666674L824.2666272321429,55.9609375L824.3777892857144,70.68750000000006L824.563059375,60.869791666666686L826.0822741071429,82.95963541666674L826.638084375,58.41536458333337L827.1938946428571,80.50520833333343L827.5273808035714,58.41536458333337L827.6014888392858,87.86848958333343L828.3055151785715,68.23307291666674L829.0465955357143,55.9609375L829.4171357142857,63.32421875000006L829.9358919642857,65.77864583333343L831.4551066964286,73.14192708333343L831.5292147321429,68.23307291666674L832.3444031250001,65.77864583333343L833.1966455357143,58.41536458333337L834.7158602678571,65.77864583333343L835.1975625000001,68.23307291666674L835.2346165178571,68.23307291666674L835.9386428571429,65.77864583333343L835.975696875,70.68750000000006L836.0498049107143,65.77864583333343L836.235075,85.41406250000006L836.6426691964286,68.23307291666674L839.3476125000001,68.23307291666674L840.7186111607143,65.77864583333343L840.7556651785715,70.68750000000006L841.3855834821429,68.23307291666674L841.5337995535714,78.05078125000006L842.9047982142857,78.05078125000006L844.0534727678571,92.77734375000006L844.0905267857144,60.869791666666686L844.2016888392858,73.14192708333343L844.2387428571429,53.506510416666686L845.4985794642857,68.23307291666674L845.6838495535715,80.50520833333343L846.0173357142858,70.68750000000006L846.2026058035715,60.869791666666686L846.9066321428571,68.23307291666674L848.1294147321429,82.95963541666674L849.0187111607142,60.869791666666686L849.0557651785715,65.77864583333343L850.3897098214286,70.68750000000006L851.7977625,68.23307291666674L853.2799232142858,53.506510416666686L853.5022473214286,63.32421875000006L853.5763553571429,55.9609375L853.6134093750001,60.869791666666686L854.2803816964287,68.23307291666674L854.7620839285714,65.77864583333343L855.0955700892857,65.77864583333343L855.2437861607143,63.32421875000006L857.6152433035714,46.143229166666686L860.0237544642857,73.14192708333343L860.875996875,68.23307291666674L861.4688611607143,73.14192708333343L863.988534375,65.77864583333343L864.0996964285714,55.9609375L864.2849665178572,60.869791666666686L866.7675857142857,63.32421875000006L867.4345580357143,53.506510416666686L870.213609375,53.506510416666686L871.6587160714287,65.77864583333343L871.6957700892858,58.41536458333337L872.9556066964286,48.59765625L874.0301732142857,63.32421875000006L874.5118754464286,65.77864583333343L874.9194696428572,68.23307291666674L876.3645763392857,65.77864583333343L876.8833325892857,55.9609375L877.5132508928572,53.506510416666686L877.9949531249999,58.41536458333337L879.0695196428572,65.77864583333343L879.1065736607143,53.506510416666686L880.6257883928572,63.32421875000006L881.5150848214286,63.32421875000006L881.7374089285714,60.869791666666686L882.4784892857143,60.869791666666686L882.7008133928572,58.41536458333337L883.4789477678572,65.77864583333343L883.7012718750001,60.869791666666686L885.4428107142858,60.869791666666686L885.9245129464285,68.23307291666674L888.1107000000001,63.32421875000006L889.2964285714286,51.05208333333337L889.5558066964287,55.9609375L892.6683441964286,65.77864583333343L893.4094245535715,65.77864583333343L897.4853665178572,60.869791666666686L898.4117169642857,58.41536458333337L898.485825,60.869791666666686L898.8934191964287,60.869791666666686L899.8938776785715,55.9609375L900.1532558035715,58.41536458333337L900.5608500000001,60.869791666666686L900.7461200892858,58.41536458333337L901.0054982142858,51.05208333333337L901.0425522321428,60.869791666666686L901.561308482143,55.9609375L902.5988209821429,46.143229166666686L904.8220620535715,75.59635416666674L905.1555482142858,63.32421875000006L905.2667102678572,55.9609375L906.5265468750001,60.869791666666686L906.8229790178572,68.23307291666674L908.0457616071429,63.32421875000006L908.1198696428572,48.59765625L908.3051397321428,65.77864583333343L909.4908683035715,75.59635416666674L910.1948946428572,63.32421875000006L912.8627839285715,78.05078125000006L912.9368919642857,70.68750000000006L913.4556482142858,55.9609375L914.7154848214286,65.77864583333343L917.4204281250001,58.41536458333337L917.67980625,51.05208333333337L918.1244544642857,48.59765625L919.9401013392858,51.05208333333337L920.0142093750001,68.23307291666674L920.4218035714285,58.41536458333337L920.4588575892858,63.32421875000006L920.6441276785714,58.41536458333337L923.0155848214287,51.05208333333337L923.7937191964286,65.77864583333343L923.90488125,55.9609375L923.9419352678573,60.869791666666686L924.7941776785715,58.41536458333337L929.351821875,48.59765625L929.5000379464286,68.23307291666674L929.5370919642858,68.23307291666674L930.1670102678572,63.32421875000006L930.7228205357143,55.9609375L931.0933607142858,60.869791666666686L931.5009549107143,75.59635416666674L931.686225,75.59635416666674L931.7232790178572,60.869791666666686L931.8714950892858,78.05078125000006L932.0197111607143,75.59635416666674L932.2420352678572,53.506510416666686L933.1313316964286,63.32421875000006L933.5018718750001,48.59765625L934.4652763392858,73.14192708333343L934.539384375,46.143229166666686L934.8728705357142,55.9609375L936.1327071428572,55.9609375L936.9849495535715,53.506510416666686L938.2447861607144,58.41536458333337L938.8747044642857,55.9609375L939.7640008928572,68.23307291666674L940.468027232143,65.77864583333343L940.9867834821429,58.41536458333337L942.2095660714286,60.869791666666686L942.9877004464287,63.32421875000006L944.2104830357143,53.506510416666686" style="fill: none;" fill="none"></path></g></g></g></g></g></g><g transform="translate(74, 377)" clip-path="url(#clip_1)"><clipPath id="clip_1"><rect width="1037" height="23"></rect></clipPath><g><g><line x1="0" y1="0" x2="0" y2="5" style="visibility: inherit;" fill="rgb(0, 0, 0)" stroke="rgb(204, 204, 204)" stroke-width="1px"></line><line x1="74.10803571428572" y1="0" x2="74.10803571428572" y2="5" style="visibility: inherit;" fill="rgb(0, 0, 0)" stroke="rgb(204, 204, 204)" stroke-width="1px"></line><line x1="148.21607142857144" y1="0" x2="148.21607142857144" y2="5" style="visibility: inherit;" fill="rgb(0, 0, 0)" stroke="rgb(204, 204, 204)" stroke-width="1px"></line><line x1="222.32410714285714" y1="0" x2="222.32410714285714" y2="5" style="visibility: inherit;" fill="rgb(0, 0, 0)" stroke="rgb(204, 204, 204)" stroke-width="1px"></line><line x1="296.4321428571429" y1="0" x2="296.4321428571429" y2="5" style="visibility: inherit;" fill="rgb(0, 0, 0)" stroke="rgb(204, 204, 204)" stroke-width="1px"></line><line x1="370.5401785714286" y1="0" x2="370.5401785714286" y2="5" style="visibility: inherit;" fill="rgb(0, 0, 0)" stroke="rgb(204, 204, 204)" stroke-width="1px"></line><line x1="444.6482142857143" y1="0" x2="444.6482142857143" y2="5" style="visibility: inherit;" fill="rgb(0, 0, 0)" stroke="rgb(204, 204, 204)" stroke-width="1px"></line><line x1="518.75625" y1="0" x2="518.75625" y2="5" style="visibility: inherit;" fill="rgb(0, 0, 0)" stroke="rgb(204, 204, 204)" stroke-width="1px"></line><line x1="592.8642857142858" y1="0" x2="592.8642857142858" y2="5" style="visibility: inherit;" fill="rgb(0, 0, 0)" stroke="rgb(204, 204, 204)" stroke-width="1px"></line><line x1="666.9723214285715" y1="0" x2="666.9723214285715" y2="5" style="visibility: inherit;" fill="rgb(0, 0, 0)" stroke="rgb(204, 204, 204)" stroke-width="1px"></line><line x1="741.0803571428572" y1="0" x2="741.0803571428572" y2="5" style="visibility: inherit;" fill="rgb(0, 0, 0)" stroke="rgb(204, 204, 204)" stroke-width="1px"></line><line x1="815.1883928571428" y1="0" x2="815.1883928571428" y2="5" style="visibility: inherit;" fill="rgb(0, 0, 0)" stroke="rgb(204, 204, 204)" stroke-width="1px"></line><line x1="889.2964285714286" y1="0" x2="889.2964285714286" y2="5" style="visibility: inherit;" fill="rgb(0, 0, 0)" stroke="rgb(204, 204, 204)" stroke-width="1px"></line><line x1="963.4044642857143" y1="0" x2="963.4044642857143" y2="5" style="visibility: inherit;" fill="rgb(0, 0, 0)" stroke="rgb(204, 204, 204)" stroke-width="1px"></line><line x1="1037.5125" y1="0" x2="1037.5125" y2="5" style="visibility: inherit;" fill="rgb(0, 0, 0)" stroke="rgb(204, 204, 204)" stroke-width="1px"></line></g><g transform="translate(0, 8)"><text x="0" y="0" dx="0em" dy="0.95em" style="text-anchor: middle; visibility: hidden; font-family: &quot;Helvetica Neue&quot;, sans-serif; font-size: 12px; font-weight: 200;" fill="rgb(50, 49, 63)" stroke="none" stroke-width="1px">-2.000k</text><text x="74.10803571428572" y="0" dx="0em" dy="0.95em" style="text-anchor: middle; visibility: inherit; font-family: &quot;Helvetica Neue&quot;, sans-serif; font-size: 12px; font-weight: 200;" fill="rgb(50, 49, 63)" stroke="none" stroke-width="1px">0.000</text><text x="148.21607142857144" y="0" dx="0em" dy="0.95em" style="text-anchor: middle; visibility: inherit; font-family: &quot;Helvetica Neue&quot;, sans-serif; font-size: 12px; font-weight: 200;" fill="rgb(50, 49, 63)" stroke="none" stroke-width="1px">2.000k</text><text x="222.32410714285714" y="0" dx="0em" dy="0.95em" style="text-anchor: middle; visibility: inherit; font-family: &quot;Helvetica Neue&quot;, sans-serif; font-size: 12px; font-weight: 200;" fill="rgb(50, 49, 63)" stroke="none" stroke-width="1px">4.000k</text><text x="296.4321428571429" y="0" dx="0em" dy="0.95em" style="text-anchor: middle; visibility: inherit; font-family: &quot;Helvetica Neue&quot;, sans-serif; font-size: 12px; font-weight: 200;" fill="rgb(50, 49, 63)" stroke="none" stroke-width="1px">6.000k</text><text x="370.5401785714286" y="0" dx="0em" dy="0.95em" style="text-anchor: middle; visibility: inherit; font-family: &quot;Helvetica Neue&quot;, sans-serif; font-size: 12px; font-weight: 200;" fill="rgb(50, 49, 63)" stroke="none" stroke-width="1px">8.000k</text><text x="444.6482142857143" y="0" dx="0em" dy="0.95em" style="text-anchor: middle; visibility: inherit; font-family: &quot;Helvetica Neue&quot;, sans-serif; font-size: 12px; font-weight: 200;" fill="rgb(50, 49, 63)" stroke="none" stroke-width="1px">10.00k</text><text x="518.75625" y="0" dx="0em" dy="0.95em" style="text-anchor: middle; visibility: inherit; font-family: &quot;Helvetica Neue&quot;, sans-serif; font-size: 12px; font-weight: 200;" fill="rgb(50, 49, 63)" stroke="none" stroke-width="1px">12.00k</text><text x="592.8642857142858" y="0" dx="0em" dy="0.95em" style="text-anchor: middle; visibility: inherit; font-family: &quot;Helvetica Neue&quot;, sans-serif; font-size: 12px; font-weight: 200;" fill="rgb(50, 49, 63)" stroke="none" stroke-width="1px">14.00k</text><text x="666.9723214285715" y="0" dx="0em" dy="0.95em" style="text-anchor: middle; visibility: inherit; font-family: &quot;Helvetica Neue&quot;, sans-serif; font-size: 12px; font-weight: 200;" fill="rgb(50, 49, 63)" stroke="none" stroke-width="1px">16.00k</text><text x="741.0803571428572" y="0" dx="0em" dy="0.95em" style="text-anchor: middle; visibility: inherit; font-family: &quot;Helvetica Neue&quot;, sans-serif; font-size: 12px; font-weight: 200;" fill="rgb(50, 49, 63)" stroke="none" stroke-width="1px">18.00k</text><text x="815.1883928571428" y="0" dx="0em" dy="0.95em" style="text-anchor: middle; visibility: inherit; font-family: &quot;Helvetica Neue&quot;, sans-serif; font-size: 12px; font-weight: 200;" fill="rgb(50, 49, 63)" stroke="none" stroke-width="1px">20.00k</text><text x="889.2964285714286" y="0" dx="0em" dy="0.95em" style="text-anchor: middle; visibility: inherit; font-family: &quot;Helvetica Neue&quot;, sans-serif; font-size: 12px; font-weight: 200;" fill="rgb(50, 49, 63)" stroke="none" stroke-width="1px">22.00k</text><text x="963.4044642857143" y="0" dx="0em" dy="0.95em" style="text-anchor: middle; visibility: inherit; font-family: &quot;Helvetica Neue&quot;, sans-serif; font-size: 12px; font-weight: 200;" fill="rgb(50, 49, 63)" stroke="none" stroke-width="1px">24.00k</text><text x="1037.5125" y="0" dx="0em" dy="0.95em" style="text-anchor: middle; visibility: hidden; font-family: &quot;Helvetica Neue&quot;, sans-serif; font-size: 12px; font-weight: 200;" fill="rgb(50, 49, 63)" stroke="none" stroke-width="1px">26.00k</text></g><line x1="0" y1="0" x2="1037.5125" y2="0" fill="rgb(0, 0, 0)" stroke="rgb(204, 204, 204)" stroke-width="1px"></line></g></g></g></g></svg>